<svg width="683" height="652" viewBox="0 0 683 652" fill="none" xmlns="http://www.w3.org/2000/svg">
<path fill-rule="evenodd" clip-rule="evenodd" d="M497.634 513.147C502.372 521.352 513.195 523.696 520.471 517.628C565.138 480.377 596.612 427.839 606.853 368.051C608.451 358.725 601.012 350.542 591.551 350.542H516.765C508.985 350.542 502.427 356.169 500.386 363.676C493.72 388.193 480.784 410.126 463.406 427.647C457.935 433.163 456.353 441.645 460.237 448.373L497.634 513.147ZM303.947 177.67C307.833 184.402 315.976 187.27 323.493 185.294C335.293 182.193 347.68 180.542 360.453 180.542C373.225 180.542 385.613 182.193 397.412 185.294C404.93 187.27 413.072 184.402 416.959 177.67L454.368 112.876C459.1 104.679 455.732 94.1437 446.85 90.8726C419.924 80.9561 390.821 75.5415 360.453 75.5415C330.085 75.5415 300.982 80.9561 274.056 90.8724C265.174 94.1435 261.805 104.679 266.538 112.876L303.947 177.67ZM397.412 465.789C404.93 463.813 413.072 466.681 416.959 473.413L454.368 538.207C459.1 546.404 455.732 556.939 446.85 560.21C419.924 570.127 390.821 575.542 360.453 575.542C330.085 575.542 300.982 570.127 274.056 560.211C265.174 556.94 261.805 546.404 266.538 538.207L303.947 473.413C307.833 466.681 315.976 463.813 323.493 465.789C335.293 468.89 347.68 470.542 360.453 470.542C373.225 470.542 385.613 468.89 397.412 465.789ZM516.765 300.542C508.985 300.542 502.427 294.914 500.386 287.407C493.721 262.891 480.784 240.958 463.406 223.436C457.935 217.92 456.353 209.438 460.237 202.71L497.635 137.936C502.372 129.731 513.195 127.387 520.471 133.455C565.139 170.706 596.612 223.245 606.853 283.033C608.451 292.359 601.013 300.542 591.551 300.542L516.765 300.542ZM192.693 517.902C198.852 528.569 214.248 528.569 220.406 517.902L326.729 333.746C329.587 328.795 329.587 322.696 326.729 317.746L220.386 133.555C214.228 122.888 198.832 122.888 192.673 133.555L150.527 206.555C147.669 211.505 147.669 217.604 150.527 222.555L205.485 317.746C208.344 322.696 208.343 328.795 205.485 333.746L150.547 428.902C147.688 433.853 147.688 439.952 150.547 444.902L192.693 517.902ZM106.179 406.395C103.594 410.872 97.131 410.872 94.546 406.395L76.8548 375.752C75.6551 373.674 75.6551 371.114 76.8548 369.036L99.9156 329.094C101.115 327.016 101.115 324.456 99.9156 322.378L76.8465 282.421C75.6468 280.343 75.6468 277.783 76.8465 275.705L94.5377 245.063C97.1228 240.585 103.585 240.585 106.17 245.063L150.808 322.378C152.008 324.456 152.008 327.016 150.808 329.094L106.179 406.395Z" fill="url(#paint0_linear_1_116)"/>
<defs>
<linearGradient id="paint0_linear_1_116" x1="116.964" y1="325.542" x2="535.423" y2="458.053" gradientUnits="userSpaceOnUse">
<stop stop-color="#00FFAB"/>
<stop offset="1" stop-color="#B62EFA"/>
</linearGradient>
</defs>
</svg>
