<svg width="24" height="24" viewBox="0 0 24 24" fill="none" xmlns="http://www.w3.org/2000/svg">
<rect width="24" height="24" rx="4" fill="#8B5CF6"/>
<g clip-path="url(#clip0_57_191)">
<path d="M11.998 4L11.8906 4.36462V14.9441L11.998 15.0512L16.9087 12.1484L11.998 4Z" fill="white"/>
<path d="M11.9988 4L7.08789 12.1484L11.9988 15.0512V9.91619V4Z" fill="white"/>
<path d="M11.998 15.9809L11.9375 16.0547V19.8232L11.998 19.9998L16.9118 13.0796L11.998 15.9809Z" fill="white"/>
<path d="M11.9988 19.9998V15.9809L7.08789 13.0796L11.9988 19.9998Z" fill="white"/>
<path d="M11.998 15.051L16.9088 12.1482L11.998 9.91602V15.051Z" fill="white"/>
<path d="M7.08789 12.1482L11.9988 15.051V9.91602L7.08789 12.1482Z" fill="white"/>
</g>
<defs>
<clipPath id="clip0_57_191">
<rect width="9.82466" height="16" fill="white" transform="translate(7.08789 4)"/>
</clipPath>
</defs>
</svg>
