<svg width="24" height="24" viewBox="0 0 24 24" fill="none" xmlns="http://www.w3.org/2000/svg">
<rect width="24" height="24" rx="4" fill="#3B82F6"/>
<path d="M15.052 13.6187C15.052 12.0002 14.0809 11.4453 12.1387 11.2141C10.7514 11.0291 10.4739 10.6592 10.4739 10.0117C10.4739 9.36426 10.9364 8.94819 11.8612 8.94819C12.6936 8.94819 13.1561 9.22564 13.3872 9.91929C13.4335 10.058 13.5723 10.1505 13.711 10.1505H14.4508C14.6358 10.1505 14.7745 10.0117 14.7745 9.82684V9.78056C14.5895 8.76318 13.7572 7.97708 12.6936 7.88463V6.7748C12.6936 6.58979 12.5549 6.45107 12.3237 6.40479H11.63C11.445 6.40479 11.3063 6.54351 11.26 6.7748V7.83836C9.87274 8.02336 8.9942 8.94819 8.9942 10.1043C8.9942 11.6303 9.91902 12.2314 11.8612 12.4627C13.1561 12.6939 13.5723 12.9713 13.5723 13.7113C13.5723 14.4512 12.9248 14.9598 12.0462 14.9598C10.8438 14.9598 10.4277 14.4511 10.2889 13.7574C10.2428 13.5725 10.104 13.48 9.9653 13.48H9.1791C8.9942 13.48 8.85547 13.6187 8.85547 13.8037V13.85C9.04037 15.006 9.78029 15.8384 11.3063 16.0696V17.1795C11.3063 17.3644 11.445 17.5031 11.6762 17.5494H12.3699C12.5549 17.5494 12.6936 17.4107 12.7399 17.1795V16.0696C14.1272 15.8384 15.052 14.8673 15.052 13.6187Z" fill="white"/>
<path d="M9.64222 18.474C6.03527 17.1793 4.18551 13.1561 5.52663 9.59533C6.22028 7.65312 7.7463 6.17338 9.64222 5.47974C9.82723 5.38729 9.91968 5.24856 9.91968 5.01727V4.36991C9.91968 4.1849 9.82723 4.04617 9.64222 4C9.59594 4 9.50349 4 9.45721 4.04617C5.06416 5.43346 2.65949 10.1041 4.04678 14.4971C4.87916 17.0867 6.86764 19.0752 9.45721 19.9076C9.64222 20 9.82723 19.9076 9.8734 19.7225C9.91968 19.6764 9.91968 19.6301 9.91968 19.5376V18.8902C9.91968 18.7514 9.78095 18.5665 9.64222 18.474ZM14.544 4.04617C14.359 3.95372 14.174 4.04617 14.1278 4.23118C14.0815 4.27746 14.0815 4.32363 14.0815 4.41619V5.06355C14.0815 5.24856 14.2203 5.43346 14.359 5.52602C17.966 6.82075 19.8157 10.8439 18.4746 14.4047C17.781 16.3469 16.2549 17.8266 14.359 18.5203C14.174 18.6127 14.0815 18.7514 14.0815 18.9827V19.6301C14.0815 19.8151 14.174 19.9538 14.359 20C14.4053 20 14.4977 20 14.544 19.9538C18.9371 18.5665 21.3417 13.8959 19.9544 9.50288C19.1221 6.86703 17.0873 4.87854 14.544 4.04617Z" fill="white"/>
</svg>
