<svg width="24" height="24" viewBox="0 0 24 24" fill="none" xmlns="http://www.w3.org/2000/svg">
<rect width="24" height="24" rx="4" fill="#F59E0B"/>
<path d="M16.9096 8.92093C16.7421 7.17263 15.2339 6.58614 13.3264 6.4074V4H11.8518V6.36272C11.4636 6.36272 11.0671 6.36272 10.6733 6.36272V4H9.20985V6.42416H6.21875V8.00209C6.21875 8.00209 7.30795 7.98255 7.29119 8.00209C7.48758 7.98049 7.68469 8.03597 7.84098 8.15683C7.99727 8.2777 8.10054 8.45452 8.12903 8.65003V15.2857C8.12483 15.3547 8.10685 15.4221 8.07615 15.484C8.04545 15.5459 8.00266 15.601 7.95029 15.646C7.89891 15.6919 7.83878 15.727 7.7735 15.749C7.70823 15.7711 7.63917 15.7798 7.57047 15.7745C7.59002 15.7912 6.49803 15.7745 6.49803 15.7745L6.21875 17.5367H9.18192V20H10.6565V17.573H11.8351V19.9888H13.3125V17.5535C15.8037 17.4027 17.5408 16.7883 17.7586 14.4563C17.9346 12.5795 17.0521 11.7417 15.6417 11.4037C16.4991 10.982 17.0297 10.2 16.9096 8.92093ZM14.8429 14.1658C14.8429 15.9979 11.7038 15.7884 10.704 15.7884V12.5376C11.7038 12.5404 14.8429 12.2527 14.8429 14.1658ZM14.1587 9.58562C14.1587 11.2613 11.539 11.0574 10.7068 11.0574V8.10264C11.539 8.10264 14.1587 7.84011 14.1587 9.58562Z" fill="white"/>
</svg>
