<svg width="48" height="49" viewBox="0 0 48 49" fill="none" xmlns="http://www.w3.org/2000/svg">
<rect y="0.5" width="48" height="48" rx="24" fill="#3B82F6"/>
<path d="M30.104 27.7369C30.104 24.5 28.1618 23.3901 24.2774 22.9278C21.5028 22.5578 20.9479 21.8179 20.9479 20.523C20.9479 19.228 21.8728 18.3959 23.7225 18.3959C25.3872 18.3959 26.3121 18.9508 26.7745 20.3381C26.8671 20.6155 27.1445 20.8004 27.422 20.8004H28.9016C29.2716 20.8004 29.5491 20.523 29.5491 20.1532V20.0606C29.1791 18.0259 27.5143 16.4537 25.3872 16.2688V14.0491C25.3872 13.6791 25.1097 13.4016 24.6474 13.3091H23.2601C22.8901 13.3091 22.6126 13.5865 22.5201 14.0491V16.1762C19.7455 16.5462 17.9884 18.3959 17.9884 20.7081C17.9884 23.7601 19.838 24.9623 23.7225 25.4249C26.3121 25.8873 27.1445 26.4422 27.1445 27.922C27.1445 29.4019 25.8496 30.4191 24.0925 30.4191C21.6877 30.4191 20.8553 29.4016 20.5779 28.0144C20.4855 27.6446 20.2081 27.4594 19.9306 27.4594H18.3582C17.9884 27.4594 17.7109 27.7369 17.7109 28.1069V28.1995C18.0807 30.5115 19.5606 32.1762 22.6126 32.6388V34.8585C22.6126 35.2283 22.8901 35.5057 23.3524 35.5983H24.7397C25.1097 35.5983 25.3872 35.3208 25.4798 34.8585V32.6388C28.2543 32.1762 30.104 30.234 30.104 27.7369Z" fill="white"/>
<path d="M19.2825 37.448C12.0686 34.8585 8.36907 26.8122 11.0513 19.6907C12.4386 15.8062 15.4906 12.8468 19.2825 11.4595C19.6525 11.2746 19.8374 10.9971 19.8374 10.5345V9.23981C19.8374 8.8698 19.6525 8.59234 19.2825 8.5C19.1899 8.5 19.005 8.5 18.9125 8.59234C10.1264 11.3669 5.31703 20.7081 8.09161 29.4942C9.75636 34.6734 13.7333 38.6504 18.9125 40.3151C19.2825 40.5 19.6525 40.3151 19.7448 39.9451C19.8374 39.8527 19.8374 39.7602 19.8374 39.5753V38.2803C19.8374 38.0029 19.5599 37.6331 19.2825 37.448ZM29.0861 8.59234C28.7161 8.40744 28.346 8.59234 28.2537 8.96236C28.1611 9.05492 28.1611 9.14725 28.1611 9.33237V10.6271C28.1611 10.9971 28.4386 11.3669 28.7161 11.552C35.93 14.1415 39.6295 22.1878 36.9472 29.3093C35.5599 33.1938 32.5079 36.1532 28.7161 37.5405C28.346 37.7254 28.1611 38.0029 28.1611 38.4655V39.7602C28.1611 40.1302 28.346 40.4077 28.7161 40.5C28.8086 40.5 28.9935 40.5 29.0861 40.4077C37.8722 37.6331 42.6815 28.2919 39.9069 19.5058C38.2422 14.2341 34.1727 10.2571 29.0861 8.59234Z" fill="white"/>
</svg>
