<svg width="48" height="49" viewBox="0 0 48 49" fill="none" xmlns="http://www.w3.org/2000/svg">
<rect y="0.5" width="48" height="48" rx="24" fill="#F59E0B"/>
<path d="M33.8192 18.3423C33.4841 14.8457 30.4679 13.6728 26.6529 13.3153V8.50049H23.7037V13.2259C22.9273 13.2259 22.1341 13.2259 21.3466 13.2259V8.50049H18.4197V13.3488H12.4375V16.5047C12.4375 16.5047 14.6159 16.4656 14.5824 16.5047C14.9752 16.4615 15.3694 16.5724 15.682 16.8142C15.9945 17.0559 16.2011 17.4095 16.2581 17.8005V31.072C16.2497 31.2099 16.2137 31.3447 16.1523 31.4684C16.0909 31.5922 16.0053 31.7024 15.9006 31.7925C15.7978 31.8843 15.6776 31.9544 15.547 31.9986C15.4165 32.0427 15.2783 32.06 15.1409 32.0495C15.18 32.083 12.9961 32.0495 12.9961 32.0495L12.4375 35.574H18.3638V40.5005H21.313V35.6466H23.6702V40.4781H26.625V35.6075C31.6073 35.3059 35.0816 34.077 35.5173 29.413C35.8692 25.6595 34.1041 23.9838 31.2834 23.308C32.9982 22.4645 34.0594 20.9006 33.8192 18.3423ZM29.6859 28.8321C29.6859 32.4963 23.4076 32.0774 21.408 32.0774V25.5757C23.4076 25.5813 29.6859 25.006 29.6859 28.8321ZM28.3174 19.6717C28.3174 23.0231 23.0781 22.6153 21.4136 22.6153V16.7058C23.0781 16.7058 28.3174 16.1807 28.3174 19.6717Z" fill="white"/>
</svg>
