<svg width="218" height="91" viewBox="0 0 218 91" fill="none" xmlns="http://www.w3.org/2000/svg">
<path fill-rule="evenodd" clip-rule="evenodd" d="M69.4371 71.9057C70.0938 73.04 71.5943 73.3641 72.6031 72.5252C78.7958 67.3753 83.1592 60.1119 84.5791 51.8463C84.8005 50.557 83.7693 49.4257 82.4576 49.4257H72.0892C71.0107 49.4257 70.1015 50.2037 69.8185 51.2416C68.8944 54.6309 67.101 57.6631 64.6917 60.0854C63.9332 60.848 63.7138 62.0206 64.2523 62.9508L69.4371 71.9057ZM42.5844 25.5264C43.1232 26.4571 44.252 26.8535 45.2943 26.5804C46.9301 26.1517 48.6475 25.9234 50.4183 25.9234C52.1891 25.9234 53.9064 26.1517 55.5423 26.5804C56.5846 26.8536 57.7134 26.4571 58.2522 25.5264L63.4386 16.5687C64.0947 15.4355 63.6277 13.979 62.3963 13.5267C58.6633 12.1558 54.6285 11.4072 50.4183 11.4072C46.2081 11.4072 42.1733 12.1558 38.4403 13.5267C37.2089 13.9789 36.7419 15.4355 37.398 16.5687L42.5844 25.5264ZM55.5423 65.3585C56.5846 65.0853 57.7134 65.4818 58.2522 66.4124L63.4386 75.3702C64.0947 76.5034 63.6277 77.9599 62.3963 78.4121C58.6633 79.7831 54.6285 80.5316 50.4183 80.5316C46.2081 80.5316 42.1733 79.7831 38.4403 78.4122C37.2089 77.9599 36.7419 76.5034 37.398 75.3702L42.5844 66.4125C43.1232 65.4818 44.252 65.0853 45.2943 65.3585C46.9301 65.7872 48.6475 66.0155 50.4183 66.0155C52.1891 66.0155 53.9064 65.7872 55.5423 65.3585ZM72.0893 42.5133C71.0107 42.5133 70.1015 41.7353 69.8185 40.6974C68.8944 37.3081 67.101 34.2758 64.6917 31.8535C63.9332 31.0909 63.7138 29.9183 64.2523 28.9881L69.4371 20.0332C70.0938 18.8988 71.5943 18.5748 72.6031 19.4137C78.7958 24.5636 83.1592 31.827 84.5791 40.0927C84.8005 41.382 83.7693 42.5133 82.4576 42.5133L72.0893 42.5133ZM27.1602 72.5631C28.014 74.0378 30.1485 74.0378 31.0023 72.5631L45.7429 47.1037C46.1391 46.4193 46.1391 45.5761 45.7429 44.8917L30.9996 19.4275C30.1458 17.9528 28.0113 17.9528 27.1575 19.4275L21.3143 29.5196C20.9181 30.204 20.9181 31.0472 21.3143 31.7316L28.9337 44.8917C29.33 45.5761 29.33 46.4193 28.9337 47.1037L21.3171 60.259C20.9208 60.9434 20.9208 61.7866 21.3171 62.471L27.1602 72.5631ZM15.1659 57.1473C14.8076 57.7663 13.9116 57.7663 13.5532 57.1473L11.1005 52.911C10.9342 52.6238 10.9342 52.2698 11.1005 51.9826L14.2976 46.4605C14.464 46.1733 14.464 45.8193 14.2976 45.532L11.0994 40.008C10.933 39.7208 10.933 39.3668 11.0994 39.0796L13.5521 34.8433C13.9104 34.2243 14.8064 34.2243 15.1648 34.8433L21.3534 45.532C21.5197 45.8193 21.5197 46.1733 21.3534 46.4605L15.1659 57.1473Z" fill="url(#paint0_linear_27_228)"/>
<path fill-rule="evenodd" clip-rule="evenodd" d="M133.112 72.0831L133.12 72.0869L133.129 72.0905C134.612 72.7211 136.449 72.9994 138.572 72.9994C141.249 72.9994 143.532 72.4655 145.278 71.2465L145.284 71.2429L145.289 71.2392C147.112 69.9403 148.015 68.0597 148.015 65.7715C148.015 64.5206 147.699 63.3712 146.966 62.4298C146.332 61.5898 145.494 60.9338 144.497 60.4457C143.583 59.9688 142.581 59.5894 141.498 59.3019C140.487 59.008 139.465 58.7456 138.433 58.5145C137.462 58.2972 136.578 58.0622 135.78 57.8106C135.081 57.5649 134.57 57.289 134.209 57.0068C134.031 56.8438 133.945 56.6634 133.945 56.3663C133.945 56.1825 133.976 55.9602 134.058 55.6933C134.12 55.5389 134.243 55.345 134.483 55.1189L134.484 55.1182L134.485 55.1175C134.681 54.9318 135.034 54.7165 135.634 54.5284C136.176 54.3585 136.964 54.2507 138.046 54.2507C139.793 54.2507 140.823 54.5932 141.385 55.0391L141.393 55.045L141.4 55.0507C142.055 55.5555 142.358 56.1087 142.435 56.7416L142.576 57.9203H147.573L147.487 56.5021C147.411 55.2301 147 54.0478 146.277 52.9751C145.534 51.8425 144.443 50.9878 143.095 50.3732C141.686 49.7097 139.981 49.416 138.046 49.416C135.337 49.416 133.054 49.9666 131.419 51.2867L131.415 51.29L131.411 51.2934C129.82 52.5986 129.004 54.3361 129.004 56.3972C129.004 57.6275 129.309 58.7602 130.015 59.6978L130.029 59.7166L130.044 59.7349C130.694 60.5389 131.523 61.1781 132.498 61.6644L132.504 61.6674L132.51 61.6702C133.438 62.1216 134.435 62.4894 135.5 62.7768L135.503 62.7777L135.506 62.7786C136.522 63.0474 137.529 63.306 138.525 63.5543L138.537 63.5575L138.55 63.5604C139.499 63.7772 140.357 64.021 141.128 64.29L141.133 64.2917L141.138 64.2933C141.863 64.5402 142.354 64.8302 142.675 65.1235L142.696 65.1431L142.718 65.1617C142.906 65.3191 143.013 65.5074 143.013 65.864C143.013 66.5927 142.748 67.0614 142.147 67.4313C141.419 67.8577 140.318 68.1339 138.726 68.1339C137.662 68.1339 136.71 68.0038 135.859 67.7568C135.069 67.5217 134.497 67.183 134.086 66.7764C133.748 66.4235 133.524 65.9407 133.479 65.2255L133.4 63.9709H128.267L128.39 65.422C128.511 66.8371 128.936 68.1374 129.679 69.2976L129.684 69.306L129.69 69.3144C130.495 70.5316 131.663 71.4438 133.112 72.0831ZM163.121 69.523L163.126 69.5284L163.131 69.5339C164.19 70.6371 165.448 71.4905 166.89 72.0935C168.351 72.7043 169.942 72.9994 171.646 72.9994C173.35 72.9994 174.941 72.7043 176.401 72.0935C177.844 71.4904 179.094 70.6358 180.135 69.5284C181.181 68.4368 181.985 67.1804 182.543 65.768L182.544 65.7646L182.545 65.7612C183.103 64.3245 183.378 62.8031 183.378 61.2077C183.378 59.5944 183.104 58.07 182.543 56.6474C181.985 55.235 181.181 53.9785 180.135 52.8869C179.094 51.7796 177.844 50.925 176.401 50.3219C174.941 49.7111 173.35 49.416 171.646 49.416C169.942 49.416 168.351 49.7111 166.89 50.3219C165.448 50.9249 164.19 51.7783 163.131 52.8815L163.126 52.887L163.121 52.8924C162.096 53.9842 161.305 55.2391 160.749 56.6474C160.188 58.07 159.914 59.5944 159.914 61.2077C159.914 62.8031 160.189 64.3245 160.746 65.7612L160.748 65.7646L160.749 65.768C161.305 67.1763 162.096 68.4312 163.121 69.523ZM177.535 64.7565C177.012 65.766 176.258 66.5717 175.248 67.187C174.3 67.7569 173.118 68.0722 171.646 68.0722C170.2 68.0722 169.015 67.7595 168.039 67.1844C167.031 66.5696 166.267 65.7636 165.724 64.7526C165.192 63.7044 164.917 62.5308 164.917 61.2077C164.917 59.859 165.194 58.6883 165.721 57.6667C166.264 56.6549 167.027 55.8604 168.032 55.2661L168.039 55.2618L168.046 55.2575C169.021 54.6646 170.204 54.3432 171.646 54.3432C173.113 54.3432 174.29 54.6664 175.237 55.2521L175.248 55.2592L175.26 55.2661C176.263 55.8598 177.013 56.6519 177.535 57.659L177.539 57.6667L177.543 57.6744C178.089 58.6947 178.375 59.8625 178.375 61.2077C178.375 62.5289 178.09 63.7009 177.539 64.7491L177.537 64.7527L177.535 64.7565ZM186.879 49.6627V72.7527H191.882V58.2718L202.507 72.7527H207.22V49.6627H202.217V64.0938L191.591 49.6627H186.879ZM151.4 49.6627V72.7527H156.403V49.6627H151.4ZM120.089 49.6627V72.7527H125.092V49.6627H120.089ZM95.1357 49.6627L104.51 72.7527H108.978L118.352 49.6627H112.914L106.744 65.1662L100.573 49.6627H95.1357Z" fill="white"/>
<path fill-rule="evenodd" clip-rule="evenodd" d="M186.967 23.8591V42.2645H192.019V23.8591H199.233V18.9453H179.752V23.8591H186.967ZM166.049 18.9453V42.2645H182.376V37.3195H171.102V18.9453H166.049ZM146.044 41.2064L146.054 41.2128L146.065 41.2189C147.624 42.093 149.377 42.5136 151.29 42.5136C153.224 42.5136 154.986 42.0819 156.532 41.1776C158.081 40.2832 159.296 39.0322 160.162 37.4494C161.036 35.8514 161.452 34.034 161.452 32.0375V18.9453H156.399V32.0997C156.399 33.5334 156.118 34.5588 155.668 35.2764C155.169 36.0732 154.555 36.6272 153.827 36.9848C153.036 37.3525 152.195 37.5375 151.29 37.5375C150.411 37.5375 149.567 37.3547 148.747 36.9825C148.024 36.6262 147.414 36.0756 146.917 35.2853C146.483 34.5645 146.211 33.5347 146.211 32.0997V18.9453H141.159V32.0375C141.159 34.0519 141.573 35.8803 142.448 37.4805C143.312 39.0593 144.514 40.3104 146.044 41.2064ZM125.792 18.9453L115.866 42.2645H121.405L123.934 36.2851H132.38L134.91 42.2645H140.448L130.522 18.9453H125.792ZM130.338 31.4335H125.976L128.157 26.23L130.338 31.4335ZM95.1357 18.9453L104.603 42.2645H109.115L118.582 18.9453H113.091L106.859 34.6027L100.627 18.9453H95.1357Z" fill="white"/>
<defs>
<linearGradient id="paint0_linear_27_228" x1="16.6612" y1="45.9694" x2="74.6461" y2="64.3831" gradientUnits="userSpaceOnUse">
<stop stop-color="#00FFAB"/>
<stop offset="1" stop-color="#B62EFA"/>
</linearGradient>
</defs>
</svg>
